G04 DipTrace 5.1.0.3*
G04 AkbayBottom.gbr*
%MOIN*%
G04 #@! TF.FileFunction,Copper,L2,Bot*
G04 #@! TF.Part,Single*
G04 #@! TA.AperFunction,Conductor*
%ADD13C,0.02*%
G04 #@! TA.AperFunction,ComponentPad*
%ADD15C,0.09*%
%ADD16R,0.09X0.09*%
%ADD17R,0.1X0.1*%
%ADD18R,0.07X0.07*%
%ADD19C,0.07*%
%ADD20R,0.12X0.07*%
%ADD21O,0.12X0.06*%
%ADD22R,0.12X0.12*%
%ADD23C,0.12*%
%ADD24R,0.13X0.08*%
%ADD25O,0.13X0.08*%
%FSLAX26Y26*%
G04*
G70*
G90*
G75*
G01*
G04 Bottom*
%LPD*%
X-4425000Y6212500D2*
G54D13*
Y6132500D1*
X-4500000Y6057500D1*
X-4470000D1*
X-4387500Y5975000D1*
Y5887500D1*
X-4400000Y5875000D1*
X-4462500D1*
X-4475000Y5862500D1*
Y5612500D1*
X-4384000D1*
X-3412500Y5975000D2*
Y5987500D1*
X-3350000Y6050000D1*
X-3252500D1*
X-3237500Y6035000D1*
X-2825000Y5537500D2*
Y5425000D1*
X-3115000D1*
X-3175000D1*
Y5222500D1*
X-3187500Y5210000D1*
X-3115000Y5612500D2*
Y5425000D1*
X-3237500Y6035000D2*
Y5812500D1*
X-3262500Y5787500D1*
X-3325000D1*
Y5612500D1*
X-3115000D1*
X-2712500Y4877500D2*
X-2850000D1*
X-3187500Y5210000D2*
X-3182500D1*
X-2850000Y4877500D1*
Y4800000D1*
X-2900000Y4750000D1*
Y4635000D1*
X-4060000Y5737500D2*
X-4100000D1*
X-4237500Y5600000D1*
X-4371500D1*
X-4384000Y5612500D1*
X-4322500Y5250000D2*
Y5551000D1*
X-4384000Y5612500D1*
X-3762500Y4437500D2*
X-4325000D1*
X-4362500Y4475000D1*
Y5210000D1*
X-4322500Y5250000D1*
X-3812500Y5050000D2*
X-3880932D1*
X-3917374Y5013558D1*
X-4111060D1*
X-4250000Y5152497D1*
Y5177500D1*
X-4322500Y5250000D1*
X-3762500Y4437500D2*
Y4325000D1*
X-3775000Y4312500D1*
X-3237500D1*
X-3212500Y4337500D1*
Y4612500D1*
X-3175000Y4650000D1*
X-2915000D1*
X-2900000Y4635000D1*
X-2851039Y6148122D2*
Y6123961D1*
X-3062500Y5912500D1*
Y5867318D1*
Y5727500D1*
X-3075000Y5715000D1*
X-2871500Y5887500D2*
X-3042318D1*
X-3062500Y5867318D1*
X-3237500Y5715000D2*
X-3075000D1*
X-2725000D2*
Y5387500D1*
X-2737500Y5375000D1*
X-2787500D1*
X-2825000Y5337500D1*
Y5310000D1*
X-2712500Y5197500D1*
X-2725000Y6035000D2*
X-2824000D1*
X-2871500Y5987500D1*
Y5787500D2*
Y5678500D1*
X-3012500Y5537500D1*
X-4547500Y5937500D2*
Y5790000D1*
X-4562500Y5775000D1*
X-4547500Y5937500D2*
X-4662500D1*
Y5775000D1*
X-3578500Y6112500D2*
X-3537500D1*
X-3475000Y6175000D1*
X-3223714D1*
X-3210688Y6161972D1*
X-3063866D1*
X-3048961Y6176878D1*
X-3412500Y5775000D2*
Y5635000D1*
X-3435000Y5612500D1*
Y5491524D1*
X-3404513Y5461037D1*
X-3578500Y5912500D2*
Y5734000D1*
X-3600000Y5712500D1*
Y5709450D1*
X-3670487Y5638963D1*
X-3875000Y5937500D2*
X-3740000D1*
X-3737500Y5940000D1*
Y5740000D1*
X-3740000Y5737500D1*
X-3737500Y5940000D2*
X-3665000Y6012500D1*
X-3578500D1*
X-4122500Y5550000D2*
Y5370000D1*
X-4002500Y5250000D1*
X-3812500D1*
Y5350000D2*
X-3788509D1*
X-3715000Y5276491D1*
Y5023509D1*
X-3776009Y4962500D1*
X-3875005D1*
X-4075000Y4762505D1*
Y4697500D1*
X-4097500Y4675000D1*
X-3762500Y4537500D2*
Y4660000D1*
X-3777500Y4675000D1*
X-3487500Y4450000D2*
Y4490000D1*
X-3265000Y4712500D1*
X-3585000D2*
Y4852500D1*
X-3575000Y4862500D1*
Y4987500D1*
X-3607499Y5019999D1*
Y5123433D1*
X-3580932Y5150000D1*
X-3512500D1*
X-2900000Y4315000D2*
X-3052500D1*
X-3087500Y4350000D1*
X-2725000Y4572500D2*
Y4562500D1*
X-2775000Y4512500D1*
X-3050000D1*
X-3087500Y4550000D1*
X-3100000Y4750000D2*
Y4802500D1*
X-3187500Y4890000D1*
X-3100000Y4750000D2*
Y4803801D1*
X-3012500Y4891301D1*
X-3187500Y4890000D2*
X-3352500D1*
X-3512500Y5050000D1*
X-4080000Y5088564D2*
X-3898936D1*
X-3837500Y5150000D1*
X-3812500D1*
X-4227500Y5937500D2*
X-4259000D1*
X-4384000Y5812500D1*
X-4227500Y5937500D2*
X-4075000D1*
X-4725000Y6212500D2*
Y6087500D1*
X-4700000Y6062500D1*
X-4725000Y6212500D2*
Y6287500D1*
X-4712500Y6300000D1*
X-3777500D1*
X-3737500Y6260000D1*
X-3517340D1*
X-3514312Y6263028D1*
X-2913028D1*
X-2900000Y6250000D1*
Y6210000D1*
X-3075000Y6035000D1*
X-3737500Y6260000D2*
Y6100000D1*
X-3775000Y6062500D1*
X-3962500D1*
X-3975000Y6050000D1*
Y5850000D1*
X-3875000D1*
X-3850000Y5825000D1*
Y5597500D1*
X-3802500Y5550000D1*
X-3550000D1*
X-3512500Y5512500D1*
Y5350000D1*
X-2725000Y4252500D2*
X-2810000D1*
X-2850000Y4212500D1*
X-4762500D1*
X-4775000Y4225000D1*
Y5987500D1*
X-4700000Y6062500D1*
X-4384000Y5712500D2*
X-4250000D1*
X-4237500Y5725000D1*
Y5800000D1*
X-4200000Y5837500D1*
X-4025000D1*
X-3987500Y5800000D1*
X-3925000D1*
X-3912500Y5787500D1*
Y5512500D1*
X-3862500Y5462500D1*
X-3625000D1*
X-3612500Y5450000D1*
Y5325000D1*
X-3550000Y5262500D1*
X-3525000D1*
X-3512500Y5250000D1*
X-3920000Y4811436D2*
X-3826064D1*
X-3775000Y4862500D1*
X-3712500D1*
X-3675000Y4900000D1*
Y5112500D1*
X-3537500Y5250000D1*
X-3512500D1*
X-2850000Y5197500D2*
X-3001301D1*
X-3012500Y5208699D1*
Y5337500D2*
Y5208699D1*
G54D15*
X-3100000Y4750000D3*
X-2900000D3*
X-3775000Y4862500D3*
X-3575000D3*
X-3412500Y5775000D3*
Y5975000D3*
X-2825000Y5337500D3*
Y5537500D3*
X-3048961Y6176879D3*
X-2851039Y6148121D3*
X-4075000Y5937500D3*
X-3875000D3*
X-3012500Y5537500D3*
Y5337500D3*
X-4700000Y6062500D3*
X-4500000Y6057500D3*
G54D16*
X-3012500Y4891301D3*
G54D15*
Y5208699D3*
G54D16*
X-4725000Y6212500D3*
G54D15*
X-4425000D3*
G54D17*
X-4662500Y5775000D3*
X-4562500D3*
G54D18*
X-3762500Y4437500D3*
G54D19*
Y4537500D3*
G54D20*
X-4384000Y5612500D3*
G54D21*
Y5712500D3*
Y5812500D3*
G54D20*
X-3578500Y6112500D3*
G54D21*
Y6012500D3*
Y5912500D3*
G54D20*
X-2871500Y5787500D3*
G54D21*
Y5887500D3*
Y5987500D3*
G54D15*
X-3187500Y4890000D3*
Y5210000D3*
X-3585000Y4712500D3*
X-3265000D3*
X-4547500Y5937500D3*
X-4227500D3*
X-2725000Y4572500D3*
Y4252500D3*
X-2900000Y4635000D3*
Y4315000D3*
X-4122500Y5550000D3*
X-3802500D3*
X-4322500Y5250000D3*
X-4002500D3*
X-4080000Y5088564D3*
X-3920000Y4811436D3*
X-4097500Y4675000D3*
X-3777500D3*
X-3737500Y5940000D3*
Y6260000D3*
X-4060000Y5737500D3*
X-3740000D3*
X-3075000Y5715000D3*
Y6035000D3*
X-3237500D3*
Y5715000D3*
X-3210688Y6161973D3*
X-3514312Y6263027D3*
X-3404513Y5461036D3*
X-3670487Y5638964D3*
X-3115000Y5612500D3*
X-3435000D3*
X-2725000Y5715000D3*
Y6035000D3*
X-2712500Y4877500D3*
Y5197500D3*
X-2850000Y4877500D3*
Y5197500D3*
G54D22*
X-3087500Y4350000D3*
G54D23*
X-3487500Y4450000D3*
X-3087500Y4550000D3*
G54D24*
X-3812500Y5350000D3*
G54D25*
Y5250000D3*
Y5150000D3*
Y5050000D3*
X-3512500D3*
Y5150000D3*
Y5250000D3*
Y5350000D3*
M02*
