M48
INCH
T01C0.0287
T02C0.03
T03C0.0335
T04C0.0335
T05C0.035
T06C0.06
%
T01
X-030125Y+048913
X-030125Y+052087
T02
X-047250Y+062125
X-044250Y+062125
X-045625Y+057750
X-046625Y+057750
T03
X-043840Y+057125
X-043840Y+058125
X-035785Y+059125
X-035785Y+060125
X-028715Y+059875
X-028715Y+058875
T04
X-043840Y+056125
X-035785Y+061125
X-028715Y+057875
T05
X-031000Y+047500
X-031875Y+048900
X-032650Y+047125
X-035850Y+047125
X-035750Y+048625
X-035125Y+050500
X-035125Y+051500
X-035125Y+052500
X-035125Y+053500
X-034045Y+054610
X-034350Y+056125
X-034125Y+057750
X-032375Y+057150
X-031150Y+056125
X-030750Y+057150
X-030125Y+055375
X-028250Y+055375
X-028250Y+053375
X-028500Y+051975
X-027125Y+051975
X-027125Y+048775
X-028500Y+048775
X-029000Y+047500
X-029000Y+046350
X-027250Y+045725
X-029000Y+043150
X-027250Y+042525
X-037625Y+044375
X-037625Y+045375
X-037775Y+046750
X-037750Y+048625
X-039200Y+048114
X-040975Y+046750
X-040800Y+050886
X-040025Y+052500
X-038125Y+052500
X-038125Y+053500
X-038125Y+051500
X-038125Y+050500
X-038025Y+055500
X-036705Y+056390
X-037400Y+057375
X-037375Y+059400
X-038750Y+059375
X-040750Y+059375
X-042275Y+059375
X-040600Y+057375
X-041225Y+055500
X-043225Y+052500
X-045475Y+059375
X-045000Y+060575
X-047000Y+060625
X-037375Y+062600
X-035143Y+062630
X-034125Y+059750
X-032375Y+060350
X-032107Y+061620
X-030490Y+061769
X-030750Y+060350
X-028510Y+061481
X-027250Y+060350
X-027250Y+057150
X-030125Y+053375
X-031875Y+052100
T06
X-030875Y+043500
X-030875Y+045500
X-034875Y+044500
T00
M30
