G04 DipTrace 5.1.0.3*
G04 AkbayTopSilk.gbr*
%MOIN*%
G04 #@! TF.FileFunction,Legend,Top*
G04 #@! TF.Part,Single*
%ADD10C,0.005*%
%ADD14C,0.004724*%
%ADD55C,0.00772*%
%FSLAX26Y26*%
G04*
G70*
G90*
G75*
G01*
G04 TopSilk*
%LPD*%
X-3048425Y4791339D2*
G54D14*
X-3072835D1*
Y4708661D1*
X-3048425D1*
X-2951575Y4791339D2*
X-2927165D1*
Y4708661D1*
X-2951575D1*
X-3114961Y4750000D2*
X-3072835D1*
X-2927165D2*
X-2885039D1*
X-3723425Y4903839D2*
X-3747835D1*
Y4821161D1*
X-3723425D1*
X-3626575Y4903839D2*
X-3602165D1*
Y4821161D1*
X-3626575D1*
X-3789961Y4862500D2*
X-3747835D1*
X-3602165D2*
X-3560039D1*
X-3453839Y5826575D2*
Y5802165D1*
X-3371161D1*
Y5826575D1*
X-3453839Y5923425D2*
Y5947835D1*
X-3371161D1*
Y5923425D1*
X-3412500Y5760039D2*
Y5802165D1*
Y5947835D2*
Y5989961D1*
X-2866339Y5389075D2*
Y5364665D1*
X-2783661D1*
Y5389075D1*
X-2866339Y5485925D2*
Y5510335D1*
X-2783661D1*
Y5485925D1*
X-2825000Y5322539D2*
Y5364665D1*
Y5510335D2*
Y5552461D1*
X-2991978Y6210372D2*
X-3016134Y6213882D1*
X-3028022Y6132064D1*
X-3003866Y6128554D1*
X-2896134Y6196446D2*
X-2871978Y6192936D1*
X-2883866Y6111118D1*
X-2908022Y6114628D1*
X-3063766Y6179030D2*
X-3022078Y6172973D1*
X-2877922Y6152027D2*
X-2836234Y6145970D1*
X-4023425Y5978839D2*
X-4047835D1*
Y5896161D1*
X-4023425D1*
X-3926575Y5978839D2*
X-3902165D1*
Y5896161D1*
X-3926575D1*
X-4089961Y5937500D2*
X-4047835D1*
X-3902165D2*
X-3860039D1*
X-2971161Y5485925D2*
Y5510335D1*
X-3053839D1*
Y5485925D1*
X-2971161Y5389075D2*
Y5364665D1*
X-3053839D1*
Y5389075D1*
X-3012500Y5552461D2*
Y5510335D1*
Y5364665D2*
Y5322539D1*
X-4700000Y6112500D2*
X-4750000D1*
Y6012500D1*
X-4700000D1*
X-4500000Y6112500D2*
X-4450000D1*
Y6012500D1*
X-4500000D1*
X-4714961Y6062500D2*
X-4672835D1*
X-4527165D2*
X-4485039D1*
X-3050098Y4990157D2*
Y4960236D1*
X-2974902D1*
Y4990157D1*
X-3050098Y5109843D2*
Y5139764D1*
X-2974902D1*
Y5109843D1*
X-3012500Y4920472D2*
Y4960236D1*
Y5139764D2*
Y5179528D1*
G36*
X-3049508Y4881496D2*
X-3050793Y4881580D1*
X-3052055Y4881831D1*
X-3053274Y4882245D1*
X-3054429Y4882815D1*
X-3055500Y4883530D1*
X-3056468Y4884379D1*
X-3057316Y4885347D1*
X-3058032Y4886417D1*
X-3058601Y4887572D1*
X-3059015Y4888791D1*
X-3059266Y4890054D1*
X-3059350Y4891339D1*
X-3059266Y4892623D1*
X-3059015Y4893886D1*
X-3058601Y4895105D1*
X-3058032Y4896260D1*
X-3057316Y4897330D1*
X-3056468Y4898298D1*
X-3055500Y4899147D1*
X-3054429Y4899862D1*
X-3053274Y4900432D1*
X-3052055Y4900846D1*
X-3050793Y4901097D1*
X-3049508Y4901181D1*
D1*
X-3048223Y4901097D1*
X-3046960Y4900846D1*
X-3045741Y4900432D1*
X-3044587Y4899862D1*
X-3043516Y4899147D1*
X-3042548Y4898298D1*
X-3041699Y4897330D1*
X-3040984Y4896260D1*
X-3040415Y4895105D1*
X-3040001Y4893886D1*
X-3039750Y4892623D1*
X-3039665Y4891339D1*
X-3039750Y4890054D1*
X-3040001Y4888791D1*
X-3040415Y4887572D1*
X-3040984Y4886417D1*
X-3041699Y4885347D1*
X-3042548Y4884379D1*
X-3043516Y4883530D1*
X-3044587Y4882815D1*
X-3045741Y4882245D1*
X-3046960Y4881831D1*
X-3048223Y4881580D1*
X-3049508Y4881496D1*
D1*
G37*
X-3062500Y5100000D2*
G54D10*
X-2962500D1*
X-3012500Y5000000D1*
X-3062500Y5100000D1*
Y5000000D2*
X-2962500D1*
X-4375000Y6162500D2*
Y6262500D1*
X-4775000Y6162500D2*
X-4375000D1*
X-4775000D2*
Y6262500D1*
X-4375000D1*
X-4512500Y5725000D2*
Y5825000D1*
X-4712500Y5725000D2*
X-4512500D1*
X-4712500D2*
Y5825000D1*
X-4512500D1*
X-3799114Y4544587D2*
G54D14*
G03X-3799114Y4430413I35987J-57087D01*
G01*
X-3725886Y4544587D2*
G02X-3725886Y4430413I-35987J-57087D01*
G01*
G36*
X-3822633Y4417525D2*
X-3823917Y4417609D1*
X-3825180Y4417860D1*
X-3826399Y4418274D1*
X-3827554Y4418844D1*
X-3828624Y4419559D1*
X-3829592Y4420408D1*
X-3830441Y4421376D1*
X-3831156Y4422446D1*
X-3831726Y4423601D1*
X-3832140Y4424820D1*
X-3832391Y4426083D1*
X-3832475Y4427367D1*
X-3832391Y4428652D1*
X-3832140Y4429915D1*
X-3831726Y4431134D1*
X-3831156Y4432289D1*
X-3830441Y4433359D1*
X-3829592Y4434327D1*
X-3828624Y4435176D1*
X-3827554Y4435891D1*
X-3826399Y4436461D1*
X-3825180Y4436875D1*
X-3823917Y4437126D1*
X-3822633Y4437210D1*
D1*
X-3821348Y4437126D1*
X-3820085Y4436875D1*
X-3818866Y4436461D1*
X-3817711Y4435891D1*
X-3816641Y4435176D1*
X-3815673Y4434327D1*
X-3814824Y4433359D1*
X-3814109Y4432289D1*
X-3813539Y4431134D1*
X-3813125Y4429915D1*
X-3812874Y4428652D1*
X-3812790Y4427367D1*
X-3812874Y4426083D1*
X-3813125Y4424820D1*
X-3813539Y4423601D1*
X-3814109Y4422446D1*
X-3814824Y4421376D1*
X-3815673Y4420408D1*
X-3816641Y4419559D1*
X-3817711Y4418844D1*
X-3818866Y4418274D1*
X-3820085Y4417860D1*
X-3821348Y4417609D1*
X-3822633Y4417525D1*
D1*
G37*
X-4340593Y5629659D2*
G54D14*
G02X-4340593Y5795341I-53150J82841D01*
G01*
Y5629659D2*
Y5795341D1*
G36*
X-4323664Y5653445D2*
X-4324949Y5653529D1*
X-4326211Y5653780D1*
X-4327431Y5654194D1*
X-4328585Y5654764D1*
X-4329656Y5655479D1*
X-4330624Y5656328D1*
X-4331473Y5657296D1*
X-4332188Y5658366D1*
X-4332757Y5659521D1*
X-4333171Y5660740D1*
X-4333422Y5662003D1*
X-4333507Y5663287D1*
X-4333422Y5664572D1*
X-4333171Y5665835D1*
X-4332757Y5667054D1*
X-4332188Y5668209D1*
X-4331473Y5669279D1*
X-4330624Y5670247D1*
X-4329656Y5671096D1*
X-4328585Y5671811D1*
X-4327431Y5672381D1*
X-4326211Y5672795D1*
X-4324949Y5673046D1*
X-4323664Y5673130D1*
D1*
X-4322379Y5673046D1*
X-4321117Y5672795D1*
X-4319897Y5672381D1*
X-4318743Y5671811D1*
X-4317672Y5671096D1*
X-4316704Y5670247D1*
X-4315855Y5669279D1*
X-4315140Y5668209D1*
X-4314571Y5667054D1*
X-4314157Y5665835D1*
X-4313906Y5664572D1*
X-4313822Y5663287D1*
X-4313906Y5662003D1*
X-4314157Y5660740D1*
X-4314571Y5659521D1*
X-4315140Y5658366D1*
X-4315855Y5657296D1*
X-4316704Y5656328D1*
X-4317672Y5655479D1*
X-4318743Y5654764D1*
X-4319897Y5654194D1*
X-4321117Y5653780D1*
X-4322379Y5653529D1*
X-4323664Y5653445D1*
D1*
G37*
X-3621907Y6095341D2*
G54D14*
G02X-3621907Y5929659I53150J-82841D01*
G01*
Y6095341D2*
Y5929659D1*
G36*
X-3638836Y6071555D2*
X-3637551Y6071471D1*
X-3636289Y6071220D1*
X-3635069Y6070806D1*
X-3633915Y6070236D1*
X-3632844Y6069521D1*
X-3631876Y6068672D1*
X-3631027Y6067704D1*
X-3630312Y6066634D1*
X-3629743Y6065479D1*
X-3629329Y6064260D1*
X-3629078Y6062997D1*
X-3628993Y6061713D1*
X-3629078Y6060428D1*
X-3629329Y6059165D1*
X-3629743Y6057946D1*
X-3630312Y6056791D1*
X-3631027Y6055721D1*
X-3631876Y6054753D1*
X-3632844Y6053904D1*
X-3633915Y6053189D1*
X-3635069Y6052619D1*
X-3636289Y6052205D1*
X-3637551Y6051954D1*
X-3638836Y6051870D1*
D1*
X-3640121Y6051954D1*
X-3641383Y6052205D1*
X-3642603Y6052619D1*
X-3643757Y6053189D1*
X-3644828Y6053904D1*
X-3645796Y6054753D1*
X-3646645Y6055721D1*
X-3647360Y6056791D1*
X-3647929Y6057946D1*
X-3648343Y6059165D1*
X-3648594Y6060428D1*
X-3648678Y6061713D1*
X-3648594Y6062997D1*
X-3648343Y6064260D1*
X-3647929Y6065479D1*
X-3647360Y6066634D1*
X-3646645Y6067704D1*
X-3645796Y6068672D1*
X-3644828Y6069521D1*
X-3643757Y6070236D1*
X-3642603Y6070806D1*
X-3641383Y6071220D1*
X-3640121Y6071471D1*
X-3638836Y6071555D1*
D1*
G37*
X-2828093Y5804659D2*
G54D14*
G02X-2828093Y5970341I-53150J82841D01*
G01*
Y5804659D2*
Y5970341D1*
G36*
X-2811164Y5828445D2*
X-2812449Y5828529D1*
X-2813711Y5828780D1*
X-2814931Y5829194D1*
X-2816085Y5829764D1*
X-2817156Y5830479D1*
X-2818124Y5831328D1*
X-2818973Y5832296D1*
X-2819688Y5833366D1*
X-2820257Y5834521D1*
X-2820671Y5835740D1*
X-2820922Y5837003D1*
X-2821007Y5838287D1*
X-2820922Y5839572D1*
X-2820671Y5840835D1*
X-2820257Y5842054D1*
X-2819688Y5843209D1*
X-2818973Y5844279D1*
X-2818124Y5845247D1*
X-2817156Y5846096D1*
X-2816085Y5846811D1*
X-2814931Y5847381D1*
X-2813711Y5847795D1*
X-2812449Y5848046D1*
X-2811164Y5848130D1*
D1*
X-2809879Y5848046D1*
X-2808617Y5847795D1*
X-2807397Y5847381D1*
X-2806243Y5846811D1*
X-2805172Y5846096D1*
X-2804204Y5845247D1*
X-2803355Y5844279D1*
X-2802640Y5843209D1*
X-2802071Y5842054D1*
X-2801657Y5840835D1*
X-2801406Y5839572D1*
X-2801322Y5838287D1*
X-2801406Y5837003D1*
X-2801657Y5835740D1*
X-2802071Y5834521D1*
X-2802640Y5833366D1*
X-2803355Y5832296D1*
X-2804204Y5831328D1*
X-2805172Y5830479D1*
X-2806243Y5829764D1*
X-2807397Y5829194D1*
X-2808617Y5828780D1*
X-2809879Y5828529D1*
X-2811164Y5828445D1*
D1*
G37*
X-3228839Y5001575D2*
G54D14*
Y4977165D1*
X-3146161D1*
Y5001575D1*
X-3228839Y5098425D2*
Y5122835D1*
X-3146161D1*
Y5098425D1*
X-3187500Y4935039D2*
Y4977165D1*
Y5122835D2*
Y5164961D1*
X-3473425Y4753839D2*
X-3497835D1*
Y4671161D1*
X-3473425D1*
X-3376575Y4753839D2*
X-3352165D1*
Y4671161D1*
X-3376575D1*
X-3539961Y4712500D2*
X-3497835D1*
X-3352165D2*
X-3310039D1*
X-4435925Y5978839D2*
X-4460335D1*
Y5896161D1*
X-4435925D1*
X-4339075Y5978839D2*
X-4314665D1*
Y5896161D1*
X-4339075D1*
X-4502461Y5937500D2*
X-4460335D1*
X-4314665D2*
X-4272539D1*
X-2683661Y4460925D2*
Y4485335D1*
X-2766339D1*
Y4460925D1*
X-2683661Y4364075D2*
Y4339665D1*
X-2766339D1*
Y4364075D1*
X-2725000Y4527461D2*
Y4485335D1*
Y4339665D2*
Y4297539D1*
X-2858661Y4523425D2*
Y4547835D1*
X-2941339D1*
Y4523425D1*
X-2858661Y4426575D2*
Y4402165D1*
X-2941339D1*
Y4426575D1*
X-2900000Y4589961D2*
Y4547835D1*
Y4402165D2*
Y4360039D1*
X-4010925Y5591339D2*
X-4035335D1*
Y5508661D1*
X-4010925D1*
X-3914075Y5591339D2*
X-3889665D1*
Y5508661D1*
X-3914075D1*
X-4077461Y5550000D2*
X-4035335D1*
X-3889665D2*
X-3847539D1*
X-4210925Y5291339D2*
X-4235335D1*
Y5208661D1*
X-4210925D1*
X-4114075Y5291339D2*
X-4089665D1*
Y5208661D1*
X-4114075D1*
X-4277461Y5250000D2*
X-4235335D1*
X-4089665D2*
X-4047539D1*
X-3988412Y5012607D2*
X-4000617Y5033746D1*
X-4072218Y4992407D1*
X-4060013Y4971268D1*
X-3939987Y4928732D2*
X-3927782Y4907593D1*
X-3999383Y4866254D1*
X-4011588Y4887393D1*
X-4057480Y5049559D2*
X-4036417Y5013077D1*
X-3963583Y4886923D2*
X-3942520Y4850441D1*
X-3985925Y4716339D2*
X-4010335D1*
Y4633661D1*
X-3985925D1*
X-3889075Y4716339D2*
X-3864665D1*
Y4633661D1*
X-3889075D1*
X-4052461Y4675000D2*
X-4010335D1*
X-3864665D2*
X-3822539D1*
X-3778839Y6051575D2*
Y6027165D1*
X-3696161D1*
Y6051575D1*
X-3778839Y6148425D2*
Y6172835D1*
X-3696161D1*
Y6148425D1*
X-3737500Y5985039D2*
Y6027165D1*
Y6172835D2*
Y6214961D1*
X-3948425Y5778839D2*
X-3972835D1*
Y5696161D1*
X-3948425D1*
X-3851575Y5778839D2*
X-3827165D1*
Y5696161D1*
X-3851575D1*
X-4014961Y5737500D2*
X-3972835D1*
X-3827165D2*
X-3785039D1*
X-3116339Y5826575D2*
Y5802165D1*
X-3033661D1*
Y5826575D1*
X-3116339Y5923425D2*
Y5947835D1*
X-3033661D1*
Y5923425D1*
X-3075000Y5760039D2*
Y5802165D1*
Y5947835D2*
Y5989961D1*
X-3196161Y5923425D2*
Y5947835D1*
X-3278839D1*
Y5923425D1*
X-3196161Y5826575D2*
Y5802165D1*
X-3278839D1*
Y5826575D1*
X-3237500Y5989961D2*
Y5947835D1*
Y5802165D2*
Y5760039D1*
X-3329607Y6157984D2*
X-3306447Y6150276D1*
X-3280338Y6228723D1*
X-3303498Y6236431D1*
X-3421502Y6188569D2*
X-3444662Y6196277D1*
X-3418553Y6274724D1*
X-3395393Y6267016D1*
X-3253422Y6176196D2*
X-3293392Y6189499D1*
X-3431608Y6235501D2*
X-3471578Y6248804D1*
X-3520236Y5488715D2*
X-3499947Y5475143D1*
X-3453977Y5543862D1*
X-3474265Y5557434D1*
X-3600735Y5542566D2*
X-3621023Y5556138D1*
X-3575053Y5624857D1*
X-3554764Y5611285D1*
X-3441948Y5486079D2*
X-3476962Y5509502D1*
X-3598038Y5590498D2*
X-3633052Y5613921D1*
X-3226575Y5571161D2*
X-3202165D1*
Y5653839D1*
X-3226575D1*
X-3323425Y5571161D2*
X-3347835D1*
Y5653839D1*
X-3323425D1*
X-3160039Y5612500D2*
X-3202165D1*
X-3347835D2*
X-3389961D1*
X-2766339Y5826575D2*
Y5802165D1*
X-2683661D1*
Y5826575D1*
X-2766339Y5923425D2*
Y5947835D1*
X-2683661D1*
Y5923425D1*
X-2725000Y5760039D2*
Y5802165D1*
Y5947835D2*
Y5989961D1*
X-2753839Y4989075D2*
Y4964665D1*
X-2671161D1*
Y4989075D1*
X-2753839Y5085925D2*
Y5110335D1*
X-2671161D1*
Y5085925D1*
X-2712500Y4922539D2*
Y4964665D1*
Y5110335D2*
Y5152461D1*
X-2891339Y4989075D2*
Y4964665D1*
X-2808661D1*
Y4989075D1*
X-2891339Y5085925D2*
Y5110335D1*
X-2808661D1*
Y5085925D1*
X-2850000Y4922539D2*
Y4964665D1*
Y5110335D2*
Y5152461D1*
X-3287499Y4250000D2*
G54D10*
X-3087500D1*
X-3356790Y4443731D2*
G54D14*
X-3262302Y4443740D1*
X-3356790Y4469261D2*
X-3262302Y4469252D1*
X-3287499Y4250000D2*
G54D10*
G02X-3287499Y4650000I0J200000D01*
G01*
G36*
X-3004428Y4340157D2*
X-3005713Y4340242D1*
X-3006975Y4340493D1*
X-3008194Y4340907D1*
X-3009349Y4341476D1*
X-3010420Y4342191D1*
X-3011388Y4343040D1*
X-3012236Y4344008D1*
X-3012952Y4345079D1*
X-3013521Y4346233D1*
X-3013935Y4347453D1*
X-3014186Y4348715D1*
X-3014270Y4350000D1*
X-3014186Y4351285D1*
X-3013935Y4352547D1*
X-3013521Y4353767D1*
X-3012952Y4354921D1*
X-3012236Y4355992D1*
X-3011388Y4356960D1*
X-3010420Y4357809D1*
X-3009349Y4358524D1*
X-3008194Y4359093D1*
X-3006975Y4359507D1*
X-3005713Y4359758D1*
X-3004428Y4359843D1*
D1*
X-3003143Y4359758D1*
X-3001880Y4359507D1*
X-3000661Y4359093D1*
X-2999507Y4358524D1*
X-2998436Y4357809D1*
X-2997468Y4356960D1*
X-2996619Y4355992D1*
X-2995904Y4354921D1*
X-2995335Y4353767D1*
X-2994921Y4352547D1*
X-2994670Y4351285D1*
X-2994585Y4350000D1*
X-2994670Y4348715D1*
X-2994921Y4347453D1*
X-2995335Y4346233D1*
X-2995904Y4345079D1*
X-2996619Y4344008D1*
X-2997468Y4343040D1*
X-2998436Y4342191D1*
X-2999507Y4341476D1*
X-3000661Y4340907D1*
X-3001880Y4340493D1*
X-3003143Y4340242D1*
X-3004428Y4340157D1*
D1*
G37*
X-3087500Y4250000D2*
G54D10*
Y4300000D1*
Y4650000D1*
X-3287499D2*
X-3087500D1*
X-3507579Y5381102D2*
G54D14*
Y5395276D1*
X-3817421D1*
Y5381102D1*
X-3507579Y5018898D2*
Y5004724D1*
X-3817421D1*
Y5018898D1*
G36*
X-3851083Y5359843D2*
X-3849798Y5359758D1*
X-3848535Y5359507D1*
X-3847316Y5359093D1*
X-3846161Y5358524D1*
X-3845091Y5357809D1*
X-3844123Y5356960D1*
X-3843274Y5355992D1*
X-3842559Y5354921D1*
X-3841989Y5353767D1*
X-3841576Y5352547D1*
X-3841324Y5351285D1*
X-3841240Y5350000D1*
X-3841324Y5348715D1*
X-3841576Y5347453D1*
X-3841989Y5346233D1*
X-3842559Y5345079D1*
X-3843274Y5344008D1*
X-3844123Y5343040D1*
X-3845091Y5342191D1*
X-3846161Y5341476D1*
X-3847316Y5340907D1*
X-3848535Y5340493D1*
X-3849798Y5340242D1*
X-3851083Y5340157D1*
D1*
X-3852367Y5340242D1*
X-3853630Y5340493D1*
X-3854849Y5340907D1*
X-3856004Y5341476D1*
X-3857074Y5342191D1*
X-3858042Y5343040D1*
X-3858891Y5344008D1*
X-3859607Y5345079D1*
X-3860176Y5346233D1*
X-3860590Y5347453D1*
X-3860841Y5348715D1*
X-3860925Y5350000D1*
X-3860841Y5351285D1*
X-3860590Y5352547D1*
X-3860176Y5353767D1*
X-3859607Y5354921D1*
X-3858891Y5355992D1*
X-3858042Y5356960D1*
X-3857074Y5357809D1*
X-3856004Y5358524D1*
X-3854849Y5359093D1*
X-3853630Y5359507D1*
X-3852367Y5359758D1*
X-3851083Y5359843D1*
D1*
G37*
X-2995781Y4862466D2*
G54D55*
X-2998158Y4867219D1*
X-3002966Y4872028D1*
X-3007720Y4874404D1*
X-3017281D1*
X-3022090Y4872028D1*
X-3026843Y4867219D1*
X-3029275Y4862466D1*
X-3031651Y4855281D1*
Y4843287D1*
X-3029275Y4836158D1*
X-3026843Y4831349D1*
X-3022090Y4826596D1*
X-3017281Y4824164D1*
X-3007720D1*
X-3002966Y4826596D1*
X-2998158Y4831349D1*
X-2995781Y4836158D1*
X-2980342Y4864787D2*
X-2975534Y4867219D1*
X-2968349Y4874349D1*
Y4824164D1*
X-3681531Y4974966D2*
X-3683908Y4979719D1*
X-3688716Y4984528D1*
X-3693470Y4986904D1*
X-3703031D1*
X-3707840Y4984528D1*
X-3712593Y4979719D1*
X-3715025Y4974966D1*
X-3717401Y4967781D1*
Y4955787D1*
X-3715025Y4948658D1*
X-3712593Y4943849D1*
X-3707840Y4939096D1*
X-3703031Y4936664D1*
X-3693470D1*
X-3688716Y4939096D1*
X-3683908Y4943849D1*
X-3681531Y4948658D1*
X-3663660Y4974911D2*
Y4977287D1*
X-3661284Y4982096D1*
X-3658907Y4984472D1*
X-3654099Y4986849D1*
X-3644537D1*
X-3639784Y4984472D1*
X-3637407Y4982096D1*
X-3634975Y4977287D1*
Y4972534D1*
X-3637407Y4967726D1*
X-3642160Y4960596D1*
X-3666092Y4936664D1*
X-3632599D1*
X-3524966Y5868469D2*
X-3529719Y5866092D1*
X-3534528Y5861284D1*
X-3536904Y5856530D1*
Y5846969D1*
X-3534528Y5842160D1*
X-3529719Y5837407D1*
X-3524966Y5834975D1*
X-3517781Y5832599D1*
X-3505787D1*
X-3498658Y5834975D1*
X-3493849Y5837407D1*
X-3489096Y5842160D1*
X-3486664Y5846969D1*
Y5856530D1*
X-3489096Y5861284D1*
X-3493849Y5866092D1*
X-3498658Y5868469D1*
X-3536849Y5888716D2*
Y5914969D1*
X-3517726Y5900655D1*
Y5907840D1*
X-3515349Y5912593D1*
X-3512972Y5914969D1*
X-3505787Y5917401D1*
X-3501034D1*
X-3493849Y5914969D1*
X-3489041Y5910216D1*
X-3486664Y5903031D1*
Y5895846D1*
X-3489041Y5888716D1*
X-3491473Y5886340D1*
X-3496226Y5883908D1*
X-2937466Y5429780D2*
X-2942219Y5427404D1*
X-2947028Y5422595D1*
X-2949404Y5417842D1*
Y5408281D1*
X-2947028Y5403472D1*
X-2942219Y5398719D1*
X-2937466Y5396287D1*
X-2930281Y5393910D1*
X-2918287D1*
X-2911158Y5396287D1*
X-2906349Y5398719D1*
X-2901596Y5403472D1*
X-2899164Y5408281D1*
Y5417842D1*
X-2901596Y5422595D1*
X-2906349Y5427404D1*
X-2911158Y5429780D1*
X-2899164Y5469151D2*
X-2949349D1*
X-2915911Y5445220D1*
Y5481090D1*
X-3032966Y6288201D2*
X-3034634Y6293247D1*
X-3038702Y6298697D1*
X-3043064Y6301732D1*
X-3052526Y6303107D1*
X-3057626Y6301446D1*
X-3063021Y6297371D1*
X-3066111Y6293017D1*
X-3069496Y6286249D1*
X-3071221Y6274380D1*
X-3069894Y6266982D1*
X-3068179Y6261874D1*
X-3064158Y6256487D1*
X-3059750Y6253389D1*
X-3050287Y6252014D1*
X-3045234Y6253737D1*
X-3039792Y6257750D1*
X-3036749Y6262166D1*
X-2990970Y6269980D2*
X-2995037Y6275430D1*
X-2999454Y6278473D1*
X-3006510Y6279499D1*
X-3011610Y6277838D1*
X-3017005Y6273763D1*
X-3020445Y6267002D1*
X-3021128Y6262298D1*
X-3019755Y6254838D1*
X-3015734Y6249451D1*
X-3011326Y6246353D1*
X-3004270Y6245328D1*
X-2999162Y6247043D1*
X-2993720Y6251056D1*
X-2962844Y6273154D2*
X-2967890Y6271486D1*
X-2973339Y6267419D1*
X-2976724Y6260650D1*
X-2977408Y6255946D1*
X-2976089Y6248494D1*
X-2972014Y6243099D1*
X-2967660Y6240009D1*
X-2960550Y6238976D1*
X-2955441Y6240691D1*
X-2950054Y6244711D1*
X-2946614Y6251472D1*
X-2945931Y6256176D1*
X-2947305Y6263636D1*
X-2951317Y6269078D1*
X-2955734Y6272121D1*
X-2962844Y6273154D1*
X-2928586Y6268177D2*
X-2932027Y6244494D1*
X-2930700Y6237096D1*
X-2926291Y6233998D1*
X-2919181Y6232965D1*
X-2914128Y6234688D1*
X-2905992Y6240711D1*
X-2902551Y6264394D2*
X-2907367Y6231249D1*
X-2887272Y6262174D2*
X-2894496Y6212456D1*
X-2888305Y6255064D2*
X-2882863Y6259076D1*
X-2877810Y6260799D1*
X-2870700Y6259766D1*
X-2866291Y6256668D1*
X-2862270Y6251281D1*
X-2860897Y6243821D1*
X-2861588Y6239062D1*
X-2865020Y6232356D1*
X-2870415Y6228281D1*
X-2875515Y6226621D1*
X-2882626Y6227654D1*
X-2886988Y6230689D1*
X-2891055Y6236139D1*
X-2841144Y6272394D2*
X-2848368Y6222676D1*
X-2830339Y6239381D2*
X-2801953Y6235256D1*
X-2801261Y6240015D1*
X-2802922Y6245115D1*
X-2804932Y6247809D1*
X-2809349Y6250852D1*
X-2816459Y6251885D1*
X-2821504Y6250217D1*
X-2826954Y6246150D1*
X-2830339Y6239381D1*
X-2831023Y6234677D1*
X-2829704Y6227225D1*
X-2825629Y6221830D1*
X-2821275Y6218740D1*
X-2814164Y6217707D1*
X-2809056Y6219422D1*
X-2803669Y6223442D1*
X-3988063Y6049966D2*
X-3990439Y6054719D1*
X-3995248Y6059528D1*
X-4000001Y6061904D1*
X-4009563D1*
X-4014371Y6059528D1*
X-4019124Y6054719D1*
X-4021556Y6049966D1*
X-4023933Y6042781D1*
Y6030787D1*
X-4021556Y6023658D1*
X-4019124Y6018849D1*
X-4014371Y6014096D1*
X-4009563Y6011664D1*
X-4000001D1*
X-3995248Y6014096D1*
X-3990439Y6018849D1*
X-3988063Y6023658D1*
X-3972623Y6061904D2*
X-3970247Y6059528D1*
X-3967815Y6061904D1*
X-3970247Y6064336D1*
X-3972623Y6061904D1*
X-3970247Y6045158D2*
Y6011664D1*
X-3952376Y6045158D2*
Y6011664D1*
Y6035596D2*
X-3945191Y6042781D1*
X-3940382Y6045158D1*
X-3933252D1*
X-3928444Y6042781D1*
X-3926067Y6035596D1*
Y6011664D1*
X-2900034Y5480998D2*
X-2895281Y5483375D1*
X-2890472Y5488183D1*
X-2888096Y5492936D1*
Y5502498D1*
X-2890472Y5507306D1*
X-2895281Y5512060D1*
X-2900034Y5514491D1*
X-2907219Y5516868D1*
X-2919213D1*
X-2926342Y5514491D1*
X-2931151Y5512060D1*
X-2935904Y5507306D1*
X-2938336Y5502498D1*
Y5492936D1*
X-2935904Y5488183D1*
X-2931151Y5483375D1*
X-2926342Y5480998D1*
X-2904842Y5453621D2*
X-2907219Y5458374D1*
X-2912028Y5463182D1*
X-2919213Y5465559D1*
X-2923966D1*
X-2931151Y5463182D1*
X-2935904Y5458374D1*
X-2938336Y5453621D1*
Y5446436D1*
X-2935904Y5441627D1*
X-2931151Y5436874D1*
X-2923966Y5434442D1*
X-2919213D1*
X-2912028Y5436874D1*
X-2907219Y5441627D1*
X-2904842Y5446436D1*
Y5453621D1*
Y5419003D2*
X-2928774D1*
X-2935904Y5416626D1*
X-2938336Y5411818D1*
Y5404633D1*
X-2935904Y5399880D1*
X-2928774Y5392695D1*
X-2904842D2*
X-2938336D1*
X-2888096Y5370070D2*
X-2928774D1*
X-2935904Y5367694D1*
X-2938336Y5362885D1*
Y5358132D1*
X-2904842Y5377255D2*
Y5360509D1*
X-4604155Y6174966D2*
X-4606531Y6179719D1*
X-4611340Y6184528D1*
X-4616093Y6186904D1*
X-4625655D1*
X-4630463Y6184528D1*
X-4635216Y6179719D1*
X-4637648Y6174966D1*
X-4640025Y6167781D1*
Y6155787D1*
X-4637648Y6148658D1*
X-4635216Y6143849D1*
X-4630463Y6139096D1*
X-4625655Y6136664D1*
X-4616093D1*
X-4611340Y6139096D1*
X-4606531Y6143849D1*
X-4604155Y6148658D1*
X-4588715Y6170158D2*
Y6119918D1*
Y6162972D2*
X-4583907Y6167726D1*
X-4579154Y6170158D1*
X-4571969D1*
X-4567160Y6167726D1*
X-4562407Y6162972D1*
X-4559975Y6155787D1*
Y6150979D1*
X-4562407Y6143849D1*
X-4567160Y6139041D1*
X-4571969Y6136664D1*
X-4579154D1*
X-4583907Y6139041D1*
X-4588715Y6143849D1*
X-3135723Y5019537D2*
X-3085483D1*
Y5036284D1*
X-3087915Y5043469D1*
X-3092668Y5048277D1*
X-3097477Y5050654D1*
X-3104606Y5053030D1*
X-3116600D1*
X-3123785Y5050654D1*
X-3128538Y5048277D1*
X-3133346Y5043469D1*
X-3135723Y5036284D1*
Y5019537D1*
X-3126106Y5068470D2*
X-3128538Y5073278D1*
X-3135668Y5080463D1*
X-3085483D1*
X-4576751Y6335723D2*
Y6297477D1*
X-4579127Y6290292D1*
X-4581559Y6287915D1*
X-4586312Y6285483D1*
X-4591121D1*
X-4595874Y6287915D1*
X-4598250Y6290292D1*
X-4600682Y6297477D1*
Y6302230D1*
X-4561311Y6326106D2*
X-4556503Y6328538D1*
X-4549318Y6335668D1*
Y6285483D1*
X-4625000Y5898223D2*
Y5859977D1*
X-4627377Y5852792D1*
X-4629809Y5850415D1*
X-4634562Y5847983D1*
X-4639371D1*
X-4644124Y5850415D1*
X-4646500Y5852792D1*
X-4648932Y5859977D1*
Y5864730D1*
X-4607129Y5886230D2*
Y5888606D1*
X-4604753Y5893415D1*
X-4602376Y5895791D1*
X-4597568Y5898168D1*
X-4588006D1*
X-4583253Y5895791D1*
X-4580876Y5893415D1*
X-4578444Y5888606D1*
Y5883853D1*
X-4580876Y5879045D1*
X-4585629Y5871915D1*
X-4609561Y5847983D1*
X-4576068D1*
X-3925093Y4425441D2*
X-3874853D1*
Y4454126D1*
X-3925093Y4500627D2*
Y4469565D1*
X-3874853D1*
Y4500627D1*
X-3901161Y4469565D2*
Y4488688D1*
X-3925093Y4516066D2*
X-3874853D1*
Y4532812D1*
X-3877285Y4539997D1*
X-3882038Y4544806D1*
X-3886847Y4547183D1*
X-3893976Y4549559D1*
X-3905970D1*
X-3913155Y4547183D1*
X-3917908Y4544806D1*
X-3922717Y4539997D1*
X-3925093Y4532812D1*
Y4516066D1*
X-4575234Y5691503D2*
X-4572912Y5686750D1*
X-4568104Y5681941D1*
X-4563295Y5679565D1*
X-4556110Y5677133D1*
X-4544172D1*
X-4536987Y5679565D1*
X-4532234Y5681941D1*
X-4527425Y5686750D1*
X-4525049Y5691503D1*
Y5701064D1*
X-4527425Y5705873D1*
X-4532234Y5710626D1*
X-4536987Y5713003D1*
X-4544172Y5715435D1*
X-4556110D1*
X-4563295Y5713003D1*
X-4568104Y5710626D1*
X-4572912Y5705873D1*
X-4575234Y5701064D1*
Y5691503D1*
X-4534610Y5698688D2*
X-4520240Y5713003D1*
X-4565617Y5730874D2*
X-4568049Y5735682D1*
X-4575178Y5742867D1*
X-4524994D1*
X-3387266Y6044247D2*
X-3389588Y6049000D1*
X-3394396Y6053809D1*
X-3399205Y6056185D1*
X-3406390Y6058617D1*
X-3418328D1*
X-3425513Y6056185D1*
X-3430266Y6053809D1*
X-3435075Y6049000D1*
X-3437451Y6044247D1*
Y6034685D1*
X-3435075Y6029877D1*
X-3430266Y6025124D1*
X-3425513Y6022747D1*
X-3418328Y6020315D1*
X-3406390D1*
X-3399205Y6022747D1*
X-3394396Y6025124D1*
X-3389588Y6029877D1*
X-3387266Y6034685D1*
Y6044247D1*
X-3427890Y6037062D2*
X-3442260Y6022747D1*
X-3399260Y6002444D2*
X-3396883D1*
X-3392075Y6000068D1*
X-3389698Y5997691D1*
X-3387322Y5992883D1*
Y5983321D1*
X-3389698Y5978568D1*
X-3392075Y5976191D1*
X-3396883Y5973759D1*
X-3401637D1*
X-3406445Y5976191D1*
X-3413575Y5980944D1*
X-3437506Y6004876D1*
Y5971383D1*
X-3062734Y5855753D2*
X-3060412Y5851000D1*
X-3055604Y5846191D1*
X-3050795Y5843815D1*
X-3043610Y5841383D1*
X-3031672D1*
X-3024487Y5843815D1*
X-3019734Y5846191D1*
X-3014925Y5851000D1*
X-3012549Y5855753D1*
Y5865315D1*
X-3014925Y5870123D1*
X-3019734Y5874876D1*
X-3024487Y5877253D1*
X-3031672Y5879685D1*
X-3043610D1*
X-3050795Y5877253D1*
X-3055604Y5874876D1*
X-3060412Y5870123D1*
X-3062734Y5865315D1*
Y5855753D1*
X-3022110Y5862938D2*
X-3007740Y5877253D1*
X-3062678Y5899932D2*
Y5926185D1*
X-3043555Y5911871D1*
Y5919056D1*
X-3041178Y5923809D1*
X-3038802Y5926185D1*
X-3031617Y5928617D1*
X-3026864D1*
X-3019679Y5926185D1*
X-3014870Y5921432D1*
X-3012494Y5914247D1*
Y5907062D1*
X-3014870Y5899932D1*
X-3017302Y5897556D1*
X-3022055Y5895124D1*
X-3287972Y5019537D2*
Y5041037D1*
X-3290404Y5048222D1*
X-3292781Y5050654D1*
X-3297534Y5053030D1*
X-3302343D1*
X-3307096Y5050654D1*
X-3309528Y5048222D1*
X-3311904Y5041037D1*
Y5019537D1*
X-3261664D1*
X-3287972Y5036284D2*
X-3261664Y5053030D1*
X-3302287Y5068470D2*
X-3304719Y5073278D1*
X-3311849Y5080463D1*
X-3261664D1*
X-3466213Y4812972D2*
X-3444713D1*
X-3437528Y4815404D1*
X-3435096Y4817781D1*
X-3432720Y4822534D1*
Y4827343D1*
X-3435096Y4832096D1*
X-3437528Y4834528D1*
X-3444713Y4836904D1*
X-3466213D1*
Y4786664D1*
X-3449466Y4812972D2*
X-3432720Y4786664D1*
X-3414849Y4824911D2*
Y4827287D1*
X-3412472Y4832096D1*
X-3410095Y4834472D1*
X-3405287Y4836849D1*
X-3395725D1*
X-3390972Y4834472D1*
X-3388595Y4832096D1*
X-3386164Y4827287D1*
Y4822534D1*
X-3388595Y4817726D1*
X-3393349Y4810596D1*
X-3417280Y4786664D1*
X-3383787D1*
X-4428713Y6037972D2*
X-4407213D1*
X-4400028Y6040404D1*
X-4397596Y6042781D1*
X-4395220Y6047534D1*
Y6052343D1*
X-4397596Y6057096D1*
X-4400028Y6059528D1*
X-4407213Y6061904D1*
X-4428713D1*
Y6011664D1*
X-4411966Y6037972D2*
X-4395220Y6011664D1*
X-4374972Y6061849D2*
X-4348719D1*
X-4363034Y6042726D1*
X-4355849D1*
X-4351095Y6040349D1*
X-4348719Y6037972D1*
X-4346287Y6030787D1*
Y6026034D1*
X-4348719Y6018849D1*
X-4353472Y6014041D1*
X-4360657Y6011664D1*
X-4367842D1*
X-4374972Y6014041D1*
X-4377349Y6016473D1*
X-4379780Y6021226D1*
X-2624528Y4454901D2*
Y4433401D1*
X-2622096Y4426216D1*
X-2619719Y4423785D1*
X-2614966Y4421408D1*
X-2610157D1*
X-2605404Y4423785D1*
X-2602972Y4426216D1*
X-2600596Y4433401D1*
Y4454901D1*
X-2650836D1*
X-2624528Y4438155D2*
X-2650836Y4421408D1*
Y4382037D2*
X-2600651D1*
X-2634089Y4405969D1*
Y4370099D1*
X-2799528Y4516213D2*
Y4494713D1*
X-2797096Y4487528D1*
X-2794719Y4485096D1*
X-2789966Y4482720D1*
X-2785157D1*
X-2780404Y4485096D1*
X-2777972Y4487528D1*
X-2775596Y4494713D1*
Y4516213D1*
X-2825836D1*
X-2799528Y4499466D2*
X-2825836Y4482720D1*
X-2775651Y4438595D2*
Y4462472D1*
X-2797151Y4464849D1*
X-2794774Y4462472D1*
X-2792342Y4455287D1*
Y4448157D1*
X-2794774Y4440972D1*
X-2799528Y4436164D1*
X-2806713Y4433787D1*
X-2811466D1*
X-2818651Y4436164D1*
X-2823459Y4440972D1*
X-2825836Y4448157D1*
Y4455287D1*
X-2823459Y4462472D1*
X-2821027Y4464849D1*
X-2816274Y4467280D1*
X-4002497Y5650472D2*
X-3980997D1*
X-3973812Y5652904D1*
X-3971380Y5655281D1*
X-3969004Y5660034D1*
Y5664843D1*
X-3971380Y5669596D1*
X-3973812Y5672028D1*
X-3980997Y5674404D1*
X-4002497D1*
Y5624164D1*
X-3985750Y5650472D2*
X-3969004Y5624164D1*
X-3924880Y5667219D2*
X-3927256Y5671972D1*
X-3934441Y5674349D1*
X-3939194D1*
X-3946379Y5671972D1*
X-3951188Y5664787D1*
X-3953564Y5652849D1*
Y5640911D1*
X-3951188Y5631349D1*
X-3946379Y5626541D1*
X-3939194Y5624164D1*
X-3936818D1*
X-3929688Y5626541D1*
X-3924880Y5631349D1*
X-3922503Y5638534D1*
Y5640911D1*
X-3924880Y5648096D1*
X-3929688Y5652849D1*
X-3936818Y5655226D1*
X-3939194D1*
X-3946379Y5652849D1*
X-3951188Y5648096D1*
X-3953564Y5640911D1*
X-4203713Y5350472D2*
X-4182213D1*
X-4175028Y5352904D1*
X-4172596Y5355281D1*
X-4170220Y5360034D1*
Y5364843D1*
X-4172596Y5369596D1*
X-4175028Y5372028D1*
X-4182213Y5374404D1*
X-4203713D1*
Y5324164D1*
X-4186966Y5350472D2*
X-4170220Y5324164D1*
X-4145219D2*
X-4121287Y5374349D1*
X-4154780D1*
X-3933581Y5035904D2*
X-3922831Y5017284D1*
X-3917132Y5012278D1*
X-3913858Y5011360D1*
X-3908554Y5011679D1*
X-3904389Y5014083D1*
X-3901461Y5018518D1*
X-3900571Y5021839D1*
X-3902106Y5029250D1*
X-3912855Y5047870D1*
X-3956365Y5022750D1*
X-3925208Y5021401D2*
X-3939618Y4993744D1*
X-3882468Y4995126D2*
X-3888091Y5000113D1*
X-3893423Y4999842D1*
X-3897588Y4997438D1*
X-3900488Y4992955D1*
X-3900217Y4987623D1*
X-3897495Y4978154D1*
X-3895961Y4970743D1*
X-3897748Y4964223D1*
X-3900676Y4959788D1*
X-3906899Y4956195D1*
X-3912203Y4955877D1*
X-3915498Y4956719D1*
X-3921148Y4961753D1*
X-3925929Y4970034D1*
X-3927436Y4977397D1*
X-3926546Y4980719D1*
X-3923618Y4985154D1*
X-3917395Y4988746D1*
X-3912091Y4989065D1*
X-3905522Y4987304D1*
X-3899899Y4982318D1*
X-3893060Y4975226D1*
X-3888550Y4972278D1*
X-3883245Y4972596D1*
X-3879081Y4975000D1*
X-3876153Y4979435D1*
X-3877687Y4986846D1*
X-3882468Y4995126D1*
X-3977525Y4775472D2*
X-3956025D1*
X-3948840Y4777904D1*
X-3946408Y4780281D1*
X-3944031Y4785034D1*
Y4789843D1*
X-3946408Y4794596D1*
X-3948840Y4797028D1*
X-3956025Y4799404D1*
X-3977525D1*
Y4749164D1*
X-3960778Y4775472D2*
X-3944031Y4749164D1*
X-3897475Y4782658D2*
X-3899907Y4775472D1*
X-3904660Y4770664D1*
X-3911845Y4768287D1*
X-3914222D1*
X-3921407Y4770664D1*
X-3926160Y4775472D1*
X-3928592Y4782658D1*
Y4785034D1*
X-3926160Y4792219D1*
X-3921407Y4796972D1*
X-3914222Y4799349D1*
X-3911845D1*
X-3904660Y4796972D1*
X-3899907Y4792219D1*
X-3897475Y4782658D1*
Y4770664D1*
X-3899907Y4758726D1*
X-3904660Y4751541D1*
X-3911845Y4749164D1*
X-3916599D1*
X-3923784Y4751541D1*
X-3926160Y4756349D1*
X-3837972Y6045071D2*
Y6066571D1*
X-3840404Y6073756D1*
X-3842781Y6076187D1*
X-3847534Y6078564D1*
X-3852343D1*
X-3857096Y6076187D1*
X-3859528Y6073756D1*
X-3861904Y6066571D1*
Y6045071D1*
X-3811664D1*
X-3837972Y6061817D2*
X-3811664Y6078564D1*
X-3861904Y6094003D2*
X-3811664D1*
Y6115558D1*
X-3814096Y6122743D1*
X-3816473Y6125120D1*
X-3821226Y6127497D1*
X-3828411D1*
X-3833219Y6125120D1*
X-3835596Y6122743D1*
X-3837972Y6115558D1*
X-3840404Y6122743D1*
X-3842781Y6125120D1*
X-3847534Y6127497D1*
X-3852343D1*
X-3857096Y6125120D1*
X-3859528Y6122743D1*
X-3861904Y6115558D1*
Y6094003D1*
X-3837972D2*
Y6115558D1*
X-3852287Y6142936D2*
X-3854719Y6147744D1*
X-3861849Y6154929D1*
X-3811664D1*
X-3965679Y5837972D2*
X-3944179D1*
X-3936994Y5840404D1*
X-3934563Y5842781D1*
X-3932186Y5847534D1*
Y5852343D1*
X-3934563Y5857096D1*
X-3936994Y5859528D1*
X-3944179Y5861904D1*
X-3965679D1*
Y5811664D1*
X-3948933Y5837972D2*
X-3932186Y5811664D1*
X-3916747Y5861904D2*
Y5811664D1*
X-3895192D1*
X-3888007Y5814096D1*
X-3885630Y5816473D1*
X-3883253Y5821226D1*
Y5828411D1*
X-3885630Y5833219D1*
X-3888007Y5835596D1*
X-3895192Y5837972D1*
X-3888007Y5840404D1*
X-3885630Y5842781D1*
X-3883253Y5847534D1*
Y5852343D1*
X-3885630Y5857096D1*
X-3888007Y5859528D1*
X-3895192Y5861904D1*
X-3916747D1*
Y5837972D2*
X-3895192D1*
X-3865382Y5849911D2*
Y5852287D1*
X-3863006Y5857096D1*
X-3860629Y5859472D1*
X-3855821Y5861849D1*
X-3846259D1*
X-3841506Y5859472D1*
X-3839129Y5857096D1*
X-3836697Y5852287D1*
Y5847534D1*
X-3839129Y5842726D1*
X-3843882Y5835596D1*
X-3867814Y5811664D1*
X-3834321D1*
X-3175472Y5809321D2*
Y5830821D1*
X-3177904Y5838006D1*
X-3180281Y5840437D1*
X-3185034Y5842814D1*
X-3189843D1*
X-3194596Y5840437D1*
X-3197028Y5838006D1*
X-3199404Y5830821D1*
Y5809321D1*
X-3149164D1*
X-3175472Y5826067D2*
X-3149164Y5842814D1*
X-3199404Y5858253D2*
X-3149164D1*
Y5879808D1*
X-3151596Y5886993D1*
X-3153973Y5889370D1*
X-3158726Y5891747D1*
X-3165911D1*
X-3170719Y5889370D1*
X-3173096Y5886993D1*
X-3175472Y5879808D1*
X-3177904Y5886993D1*
X-3180281Y5889370D1*
X-3185034Y5891747D1*
X-3189843D1*
X-3194596Y5889370D1*
X-3197028Y5886993D1*
X-3199404Y5879808D1*
Y5858253D1*
X-3175472D2*
Y5879808D1*
X-3199349Y5911994D2*
Y5938247D1*
X-3180226Y5923933D1*
Y5931118D1*
X-3177849Y5935871D1*
X-3175472Y5938247D1*
X-3168287Y5940679D1*
X-3163534D1*
X-3156349Y5938247D1*
X-3151541Y5933494D1*
X-3149164Y5926309D1*
Y5919124D1*
X-3151541Y5911994D1*
X-3153973Y5909618D1*
X-3158726Y5907186D1*
X-3137028Y5941868D2*
Y5920368D1*
X-3134596Y5913183D1*
X-3132219Y5910751D1*
X-3127466Y5908374D1*
X-3122657D1*
X-3117904Y5910751D1*
X-3115472Y5913183D1*
X-3113096Y5920368D1*
Y5941868D1*
X-3163336D1*
X-3137028Y5925121D2*
X-3163336Y5908374D1*
X-3113096Y5892935D2*
X-3163336D1*
Y5871380D1*
X-3160904Y5864195D1*
X-3158527Y5861818D1*
X-3153774Y5859442D1*
X-3146589D1*
X-3141781Y5861818D1*
X-3139404Y5864195D1*
X-3137028Y5871380D1*
X-3134596Y5864195D1*
X-3132219Y5861818D1*
X-3127466Y5859442D1*
X-3122657D1*
X-3117904Y5861818D1*
X-3115472Y5864195D1*
X-3113096Y5871380D1*
Y5892935D1*
X-3137028D2*
Y5871380D1*
X-3163336Y5820071D2*
X-3113151D1*
X-3146589Y5844002D1*
Y5808132D1*
X-3340983Y6099447D2*
X-3361382Y6106237D1*
X-3368968Y6106198D1*
X-3372025Y6104711D1*
X-3375781Y6100952D1*
X-3377300Y6096390D1*
X-3376546Y6091129D1*
X-3375007Y6088054D1*
X-3368940Y6083530D1*
X-3348540Y6076740D1*
X-3332675Y6124409D1*
X-3356872Y6104736D2*
X-3364454Y6134986D1*
X-3425233Y6114848D2*
X-3424479Y6109587D1*
X-3421435Y6103506D1*
X-3417676Y6099750D1*
X-3408603Y6096731D1*
X-3403290Y6097467D1*
X-3397262Y6100529D1*
X-3393454Y6104271D1*
X-3388930Y6110338D1*
X-3385142Y6121717D1*
X-3385146Y6129233D1*
X-3385935Y6134563D1*
X-3388943Y6140574D1*
X-3392738Y6144400D1*
X-3401810Y6147419D1*
X-3407088Y6146613D1*
X-3413152Y6143622D1*
X-3416925Y6139810D1*
X-3440615Y6117521D2*
X-3445946Y6116732D1*
X-3455015Y6112236D1*
X-3439167Y6159853D1*
X-3548720Y5436625D2*
X-3566590Y5448579D1*
X-3573914Y5450553D1*
X-3577257Y5449930D1*
X-3581875Y5447300D1*
X-3584549Y5443304D1*
X-3585216Y5438032D1*
X-3584547Y5434658D1*
X-3579897Y5428688D1*
X-3562027Y5416733D1*
X-3534092Y5458491D1*
X-3562639Y5445936D2*
X-3561931Y5477114D1*
X-3628515Y5461212D2*
X-3602698Y5443941D1*
X-3574763Y5485699D1*
X-3600581Y5502970D1*
X-3589391Y5463832D2*
X-3605286Y5474465D1*
X-3636001Y5477790D2*
X-3641349Y5478442D1*
X-3651286Y5476511D1*
X-3623382Y5518223D1*
X-3210537Y5512028D2*
X-3232037D1*
X-3239222Y5509596D1*
X-3241653Y5507219D1*
X-3244030Y5502466D1*
Y5497657D1*
X-3241653Y5492904D1*
X-3239222Y5490472D1*
X-3232037Y5488096D1*
X-3210537D1*
Y5538336D1*
X-3227283Y5512028D2*
X-3244030Y5538336D1*
X-3290531Y5488096D2*
X-3259469D1*
Y5538336D1*
X-3290531D1*
X-3259469Y5512028D2*
X-3278593D1*
X-3308402Y5500089D2*
Y5497713D1*
X-3310778Y5492904D1*
X-3313155Y5490528D1*
X-3317963Y5488151D1*
X-3327525D1*
X-3332278Y5490528D1*
X-3334655Y5492904D1*
X-3337087Y5497713D1*
Y5502466D1*
X-3334655Y5507274D1*
X-3329902Y5514404D1*
X-3305970Y5538336D1*
X-3339463D1*
X-2825472Y5810537D2*
Y5832037D1*
X-2827904Y5839222D1*
X-2830281Y5841653D1*
X-2835034Y5844030D1*
X-2839843D1*
X-2844596Y5841653D1*
X-2847028Y5839222D1*
X-2849404Y5832037D1*
Y5810537D1*
X-2799164D1*
X-2825472Y5827283D2*
X-2799164Y5844030D1*
X-2849404Y5890531D2*
Y5859469D1*
X-2799164D1*
Y5890531D1*
X-2825472Y5859469D2*
Y5878593D1*
X-2849349Y5910778D2*
Y5937031D1*
X-2830226Y5922717D1*
Y5929902D1*
X-2827849Y5934655D1*
X-2825472Y5937031D1*
X-2818287Y5939463D1*
X-2813534D1*
X-2806349Y5937031D1*
X-2801541Y5932278D1*
X-2799164Y5925093D1*
Y5917908D1*
X-2801541Y5910778D1*
X-2803973Y5908402D1*
X-2808726Y5905970D1*
X-2812972Y4971848D2*
Y4993348D1*
X-2815404Y5000533D1*
X-2817781Y5002965D1*
X-2822534Y5005342D1*
X-2827343D1*
X-2832096Y5002965D1*
X-2834528Y5000533D1*
X-2836904Y4993348D1*
Y4971848D1*
X-2786664D1*
X-2812972Y4988595D2*
X-2786664Y5005342D1*
X-2836904Y5051842D2*
Y5020781D1*
X-2786664D1*
Y5051842D1*
X-2812972Y5020781D2*
Y5039904D1*
X-2786664Y5091213D2*
X-2836849D1*
X-2803411Y5067282D1*
Y5103152D1*
X-2950472Y4998691D2*
Y5020191D1*
X-2952904Y5027376D1*
X-2955281Y5029808D1*
X-2960034Y5032185D1*
X-2964843D1*
X-2969596Y5029808D1*
X-2972028Y5027376D1*
X-2974404Y5020191D1*
Y4998691D1*
X-2924164D1*
X-2950472Y5015438D2*
X-2924164Y5032185D1*
X-2974404Y5047624D2*
X-2924164D1*
Y5076309D1*
X-3596791Y4408295D2*
Y4429795D1*
X-3599223Y4436980D1*
X-3601600Y4439412D1*
X-3606353Y4441788D1*
X-3611161D1*
X-3615915Y4439412D1*
X-3618346Y4436980D1*
X-3620723Y4429795D1*
Y4408295D1*
X-3570483D1*
X-3596791Y4425042D2*
X-3570483Y4441788D1*
X-3594415Y4457227D2*
Y4478783D1*
X-3596791Y4485912D1*
X-3599223Y4488344D1*
X-3603976Y4490721D1*
X-3611161D1*
X-3615915Y4488344D1*
X-3618346Y4485912D1*
X-3620723Y4478783D1*
Y4457227D1*
X-3570483D1*
X-3374277Y5230463D2*
X-3410147D1*
X-3417332Y5228086D1*
X-3422085Y5223278D1*
X-3424517Y5216093D1*
Y5211340D1*
X-3422085Y5204155D1*
X-3417332Y5199346D1*
X-3410147Y5196970D1*
X-3374277D1*
X-3383894Y5181530D2*
X-3381462Y5176722D1*
X-3374332Y5169537D1*
X-3424517D1*
M02*
